<svg xmlns="http://www.w3.org/2000/svg" viewBox="0 0 191.91 43.35"><defs><style>.a{fill:#323149;}</style></defs><title>Trivia</title><path class="a" d="M2416.62,144.32a1.11,1.11,0,0,0-1.52.41,1.53,1.53,0,0,1-2.86-.76v-2.38h0a1.53,1.53,0,0,1,2.8-.85,1.11,1.11,0,1,0,1.85-1.25,3.76,3.76,0,0,0-6.86,1.74,1.11,1.11,0,0,0,0,.18v2.9a1.1,1.1,0,0,0,.07.37,3.76,3.76,0,0,0,6.94,1.17A1.11,1.11,0,0,0,2416.62,144.32Z" transform="translate(-2234.05 -104.36)"/><path class="a" d="M2425.94,141.3v0s0-.07,0-0.11a3.76,3.76,0,0,0-7.47.05,1.1,1.1,0,0,0,0,.18v2.9a1.1,1.1,0,0,0,.07.37,3.76,3.76,0,0,0,3.69,3h0.11a3.75,3.75,0,0,0,3.57-3,1.1,1.1,0,0,0,.07-0.39v-2.9S2425.95,141.33,2425.94,141.3Zm-3.75,4.19h-0.05a1.53,1.53,0,0,1-1.48-1.53v-2.39a1.53,1.53,0,1,1,3.06,0V144A1.53,1.53,0,0,1,2422.19,145.48Z" transform="translate(-2234.05 -104.36)"/><path class="a" d="M2322,141h0l-0.15.18Z" transform="translate(-2234.05 -104.36)"/><path class="a" d="M2363.48,142.77a4.75,4.75,0,0,1-4.75-4.76V116.82a6.53,6.53,0,0,0-12.8-1.84,6.52,6.52,0,0,1,8.37,6.27v21.19a4.75,4.75,0,0,0,7.94,3.52l0,0,4.94-5-0.06-.05A4.73,4.73,0,0,1,2363.48,142.77Z" transform="translate(-2234.05 -104.36)"/><path class="a" d="M2336.15,128.5V116.82a6.53,6.53,0,0,0-12.8-1.84,6.52,6.52,0,0,1,8.37,6.27v11.68a4.76,4.76,0,0,0,7.42,3.94l0,0,0.22-.22a4.77,4.77,0,0,0,.85-0.85l3.61-3.62A4.73,4.73,0,0,1,2336.15,128.5Z" transform="translate(-2234.05 -104.36)"/><path class="a" d="M2313.57,138V116.14a4.73,4.73,0,0,1,.07-0.69,15.94,15.94,0,0,1,2.67-7.54,16.05,16.05,0,0,0-7.1,12,4.73,4.73,0,0,0-.07.69v21.87A4.75,4.75,0,0,0,2317,146h0l0.06-.06,0.31-.31,4.12-4.13A4.74,4.74,0,0,1,2313.57,138Z" transform="translate(-2234.05 -104.36)"/><path class="a" d="M2305.14,136.95l0,0-0.1.12Z" transform="translate(-2234.05 -104.36)"/><path class="a" d="M2292.49,143.12a16.06,16.06,0,0,1-15.75-13,4.71,4.71,0,0,1-.3-1.6V116.14a4.73,4.73,0,0,1,.08-0.78,16,16,0,0,1,3.64-8.69l-2.34,2.31a16.17,16.17,0,0,0-2,1.94h0a16,16,0,0,0-3.75,8.85,4.73,4.73,0,0,0-.08.78v12.36a4.71,4.71,0,0,0,.3,1.6,16,16,0,0,0,25.08,10h0l0.09-.07a16.1,16.1,0,0,0,2.2-1.93,62.28,62.28,0,0,0,4.61-4.62A16.1,16.1,0,0,1,2292.49,143.12Z" transform="translate(-2234.05 -104.36)"/><path class="a" d="M2305.36,136.64l0,0.07Z" transform="translate(-2234.05 -104.36)"/><path class="a" d="M2306,112.89h0l0,0.05Z" transform="translate(-2234.05 -104.36)"/><path class="a" d="M2297.91,113.24a6.53,6.53,0,0,0-11.69,1.81,6.52,6.52,0,0,1,7.26,2.62,4.75,4.75,0,0,0,7.94-.09l2.86-2.93A4.72,4.72,0,0,1,2297.91,113.24Z" transform="translate(-2234.05 -104.36)"/><path class="a" d="M2254.52,110.29a6.54,6.54,0,0,0-6.27,4.7,6.52,6.52,0,0,1,8.37,6.27v3.38h4.43v-7.8A6.54,6.54,0,0,0,2254.52,110.29Z" transform="translate(-2234.05 -104.36)"/><path class="a" d="M2244.43,104.36l-0.08.08,0.09-.08h0Z" transform="translate(-2234.05 -104.36)"/><path class="a" d="M2269.47,141h0l-0.15.18Z" transform="translate(-2234.05 -104.36)"/><path class="a" d="M2238.48,138V116.14a4.73,4.73,0,0,1,.07-0.69,16,16,0,0,1,3.57-8.76l-2,2a16.17,16.17,0,0,0-2.61,2.63h0a16,16,0,0,0-3.38,8.55,4.7,4.7,0,0,0-.07.69v21.87a4.75,4.75,0,0,0,7.9,3.56h0l0.06-.06,0.31-.31,4.12-4.13A4.74,4.74,0,0,1,2238.48,138Z" transform="translate(-2234.05 -104.36)"/><path class="a" d="M2261.05,138v-3.88H2248V138a4.69,4.69,0,0,1-.06.55h8.7v3.88a4.75,4.75,0,0,0,7.9,3.56h0l0.06-.06,0.31-.31,4.12-4.13A4.74,4.74,0,0,1,2261.05,138Z" transform="translate(-2234.05 -104.36)"/><path class="a" d="M2246.89,141h0l-0.15.18Z" transform="translate(-2234.05 -104.36)"/><path class="a" d="M2402.51,125.18h-17.82v1.68a6.48,6.48,0,0,0,.61,2.74h12a4.73,4.73,0,0,1,4.87-1.7l4-4.45v0A4.72,4.72,0,0,1,2402.51,125.18Z" transform="translate(-2234.05 -104.36)"/><path class="a" d="M2396.64,113a6.51,6.51,0,0,0-11.67,1.83,6.45,6.45,0,0,1,1.82-.28,6.52,6.52,0,0,1,3.61,1.1h7.27A6.46,6.46,0,0,0,2396.64,113Z" transform="translate(-2234.05 -104.36)"/><path class="a" d="M2391.22,142.91a16.06,16.06,0,0,1-15.63-12.48,4.73,4.73,0,0,1-.41-1.92V116.14a4.69,4.69,0,0,1,.05-0.55,16,16,0,0,1,3.54-9l-2,2A16,16,0,0,0,2370.8,120a4.74,4.74,0,0,0-.05.55v12.36a4.73,4.73,0,0,0,.41,1.92,16.06,16.06,0,0,0,15.63,12.48h0a16.06,16.06,0,0,0,9.05-2.83v0l0.37-.31a16.1,16.1,0,0,0,2.26-2c1.16-1.07,2.54-2.41,3.84-3.83a16.09,16.09,0,0,1-11.11,4.51h0Z" transform="translate(-2234.05 -104.36)"/><path class="a" d="M2269.31,141.21l-0.3.3Z" transform="translate(-2234.05 -104.36)"/><path class="a" d="M2246.73,141.21l-0.3.3Z" transform="translate(-2234.05 -104.36)"/><path class="a" d="M2321.82,141.21l-0.3.3Z" transform="translate(-2234.05 -104.36)"/><path class="a" d="M2305.31,136.71l-0.16.21Z" transform="translate(-2234.05 -104.36)"/><path class="a" d="M2305.05,137c-0.25.3-.5,0.59-0.76,0.88Q2304.69,137.5,2305.05,137Z" transform="translate(-2234.05 -104.36)"/></svg>